<?xml version="1.0" standalone="no"?> <!DOCTYPE svg PUBLIC "-//W3C//DTD SVG 1.0//EN" "http://www.w3.org/TR/2001/REC-SVG-20010904/DTD/svg10.dtd" > <svg xmlns="http://www.w3.org/2000/svg" width="100%" height="100%">
<defs >
<font id="arabian" horiz-adv-x="2183" ><font-face
    font-family="Arabia"
    units-per-em="4096"
    panose-1="2 11 114 0 0 0 0 0 0 0"
    ascent="2998"
    descent="-827"
    alphabetic="0" />
<missing-glyph horiz-adv-x="3072" d="M512 0V2560H2560V0H512ZM2494 66V2494H578V66H2494Z" />
<glyph unicode=" " glyph-name="space" horiz-adv-x="1217" />
<glyph unicode="!" glyph-name="exclam" horiz-adv-x="1135" d="M782 2601V942Q782 895 797 872T842 834T913 799Q927 791 935 786T955 773T975 752T983 721Q983 631 889 631H385Q311 631 285 649T258 737V2601Q258 2667 206 2699T66 2761Q16 2785 16 2818Q16
2885 110 2911T295 2937H713Q810 2937 913 2914T1016 2822Q1016 2775 922 2744Q782 2693 782 2601ZM791 217Q791 109 709 42T520 -25Q412 -25 327 39T242 209Q248 318 327 382T520 446Q624 446 707 383T791 217Z" />
<glyph unicode="&quot;" glyph-name="quotedbl" horiz-adv-x="1135" d="M94 1880Q51 2178 34 2330T16 2654Q16 2961 225 2961Q426 2961 426 2642Q426 2565 411 2442T393 2281Q364 1944 352 1896Q338 1720 217 1720Q155 1720 125 1767T94 1880ZM774 1921Q769 2034
737 2275T705 2654Q705 2961 913 2961Q1118 2961 1118 2642Q1070 2240 1049 1929Q1036 1872 1026 1827T992 1751T913 1720Q834 1720 815 1761T774 1921Z" />
<glyph unicode="#" glyph-name="numbersign" horiz-adv-x="2425" d="M430 0L537 754H176V1143H594L655 1638H295V2032H713L815 2785H1200L1098 2032H1495L1602 2785H1982L1880 2032H2241V1638H1831L1769 1143H2130V754H1712L1610 0H1217L1319 754H922L823 0H430ZM1376
1143L1450 1638H1040L975 1143H1376Z" />
<glyph unicode="$" glyph-name="dollar" horiz-adv-x="2425" d="M1016 -25Q744 -25 542 56T223 315T102 770Q102 950 160 1093T316 1333T534 1479T782 1528Q1074 1516 1233 1343Q1263 1316 1310 1266T1385 1194T1442 1167Q1478 1183 1487 1192Q1480 1047 1426
967T1233 881Q1190 881 1152 894T1046 939T938 985T856 999Q784 999 732 950T680 791Q680 673 824 609T1217 545Q1783 545 1794 1090Q1794 1409 1470 1647Q1364 1722 1251 1779T927 1934T606 2089Q193 2295 193 2617Q199 2799 341 2868T782 2937H1016V3138Q1016
3215 1090 3215H1335Q1367 3215 1400 3189T1434 3129V2937H1688Q2200 2937 2200 2736Q2200 2655 2158 2606T2027 2506T1896 2423T1831 2327Q1846 2288 1888 2257Q1861 2239 1778 2224Q1708 2241 1704 2241Q1618 2297 1618 2392Q1618 2434 1644 2506T1671 2617Q1671
2720 1544 2720H815Q740 2720 694 2684T647 2601Q647 2539 691 2504T864 2408Q907 2390 1090 2298T1401 2142Q1819 1934 1954 1794Q2153 1587 2226 1407T2310 975Q2310 682 2184 454T1855 100T1434 -25V-258Q1434 -299 1405 -325T1327 -352Q1292 -352 1217 -356T1106
-360Q1054 -360 1040 -336Q1016 -319 1016 -250V-25Z" />
<glyph unicode="%" glyph-name="percent" horiz-adv-x="3183" d="M791 2552Q799 2560 799 2576Q799 2646 655 2646Q564 2646 509 2590T428 2453T391 2279T369 2097Q377 2013 386 1927T421 1771T505 1660T664 1618Q983 1618 983 2122Q983 2402 889 2425Q848 2384
807 2384Q743 2384 729 2458Q729 2488 746 2517T791 2552ZM1008 2560Q1274 2482 1274 1896Q1258 1540 1135 1399T848 1257Q809 1257 762 1269T680 1282Q641 1282 596 1270T512 1257Q355 1257 258 1335Q86 1483 86 2007Q91 2202 152 2385T347 2689T680 2810Q875
2810 975 2744Q1040 2719 1040 2654Q1040 2626 1008 2560ZM721 143L2241 2654Q2249 2667 2287 2733T2354 2827T2425 2855Q2467 2855 2505 2830T2544 2761Q2544 2737 2532 2708T2498 2638T2466 2576L922 41Q872 -74 774 -74Q764 -74 746 -70T721 -66Q683 -40 672
16Q687 92 721 143ZM2830 1282Q3097 1189 3097 606Q3081 253 2958 114T2671 -25Q2630 -25 2582 -15T2503 0Q2470 0 2428 -12T2351 -25Q2179 -25 2081 57Q1913 196 1913 721Q1920 1037 2065 1282T2503 1528Q2696 1528 2802 1462Q2863 1442 2863 1376Q2863 1338 2830
1282ZM2617 1266Q2626 1274 2626 1294Q2626 1360 2478 1360Q2390 1360 2336 1305T2253 1163T2214 988T2191 815Q2200 731 2209 645T2244 489T2328 378T2486 336Q2810 336 2810 840Q2810 1112 2712 1135Q2683 1106 2634 1106Q2566 1106 2552 1176Q2552 1252 2617
1266Z" />
<glyph unicode="&amp;" glyph-name="ampersand" horiz-adv-x="3031" d="M2425 1319Q2545 1231 2612 1071T2679 721Q2679 508 2580 338T2308 71T1921 -25Q1843 -25 1682 0T1409 25Q1333 22 1182 -1T913 -25Q726 -25 533 75T250 438Q196 639 184 799Q197 1074 303
1327Q361 1449 482 1560T772 1754T1151 1880Q1303 1907 1303 1946Q1303 1961 1167 1999Q1065 2020 920 2053T651 2140T449 2285T369 2511Q369 2700 569 2818Q802 2950 1425 2961Q2511 2961 2511 2593Q2511 2460 2399 2402T2122 2343Q2069 2343 1983 2355T1864 2367Q1784
2367 1761 2306Q1766 2301 1767 2297T1769 2290Q1715 2302 1681 2348T1647 2458Q1647 2544 1753 2585Q1779 2595 1821 2607T1875 2626T1888 2646Q1888 2704 1720 2728Q1590 2744 1479 2744Q1240 2744 1091 2690T942 2478Q942 2401 992 2343T1120 2246T1366 2147T1552
2081Q1712 2010 1712 1937Q1701 1879 1511 1806Q737 1477 737 950Q759 690 967 598Q1003 590 1167 569Q1238 574 1315 580T1451 590T1536 594Q1587 594 1929 569Q2096 569 2226 643T2367 872Q2367 1063 2307 1131T2142 1200Q2075 1200 2037 1162T1999 1073Q1999
1015 2097 967Q2007 856 1855 856Q1729 856 1661 923T1593 1098Q1593 1184 1645 1248T1822 1368T2159 1479Q2494 1571 2494 1688Q2478 1786 2343 1786Q2505 1954 2646 1954Q2760 1954 2832 1877T2904 1688Q2904 1535 2771 1457T2425 1319Z" />
<glyph unicode="&apos;" glyph-name="quotesingle" horiz-adv-x="754" d="M430 2560Q419 2556 393 2552T352 2544Q273 2550 229 2607T184 2744Q205 2961 418 2961Q535 2961 595 2874T655 2662Q655 2532 586 2443T393 2335Q381 2333 290 2320T153 2289T86 2232Q100
2317 178 2358T336 2441T430 2560Z" />
<glyph unicode="(" glyph-name="parenleft" horiz-adv-x="1815" d="M344 496Q366 1438 881 2474Q1006 2746 1090 2871Q1146 2961 1241 2961Q1262 2961 1312 2953T1393 2945Q1420 2945 1481 2953T1577 2961Q1688 2961 1688 2904Q1688 2772 1552 2552Q1533 2503
1470 2503H1282H1249Q1224 2503 1205 2477T1172 2411T1151 2351Q1036 2102 970 1819T873 1273T815 614Q831 -268 1401 -455Q1539 -512 1580 -538T1622 -639Q1622 -782 1434 -782Q1405 -782 1343 -776T1225 -770Q1180 -770 1096 -776T967 -782Q846 -768 729 -680Q557
-538 451 -195T344 496Z" />
<glyph unicode=")" glyph-name="parenright" horiz-adv-x="1815" d="M1470 496Q1470 150 1365 -194T1090 -680Q965 -769 848 -782Q777 -782 637 -778T426 -774Q410 -782 385 -782Q193 -782 193 -639Q193 -565 236 -536T418 -455Q991 -243 991 623Q991 746 975
1016Q949 1284 895 1553T776 2037T664 2351Q638 2420 617 2461T561 2503H537H344Q267 2503 239 2562T181 2743T119 2896Q151 2961 242 2961Q273 2961 336 2953T426 2945Q449 2945 499 2953T569 2961Q678 2961 729 2871Q924 2572 1143 1966Q1271 1625 1365 1234T1470
496Z" />
<glyph unicode="*" glyph-name="asterisk" horiz-adv-x="1286" d="M553 2265Q548 2267 385 2335Q262 2335 217 2327Q111 2350 72 2414T33 2601Q145 2654 201 2654Q241 2654 277 2636T338 2594T390 2531T438 2466Q545 2359 598 2335Q598 2486 520 2642Q479 2733
479 2769Q479 2827 531 2879T647 2961Q807 2862 807 2769Q807 2736 795 2704T759 2624T721 2544Q688 2452 688 2335Q744 2364 831 2466T969 2615T1098 2662Q1160 2662 1257 2601Q1257 2475 1215 2401T1057 2327L905 2335Q868 2319 820 2299T745 2265Q797 2221 945
2191T1163 2127T1233 1991Q1237 1974 1241 1936T1249 1880Q1186 1871 1073 1831Q1004 1854 948 1915T823 2054T688 2167Q688 2064 729 1946Q740 1921 762 1878T795 1804T807 1745Q807 1713 794 1687T756 1638T701 1592T647 1552Q560 1606 520 1642T479 1737Q479
1783 561 1937Q598 2015 598 2167Q541 2139 506 2101T426 1998T352 1905Q279 1831 217 1831Q188 1831 120 1854T41 1880Q51 1938 61 1987T88 2077T143 2142T242 2167Q385 2167 553 2265Z" />
<glyph unicode="+" glyph-name="plus" horiz-adv-x="2458" d="M193 831V1241H1024V2073H1434V1241H2265V831H1434V0H1024V831H193Z" />
<glyph unicode="," glyph-name="comma" horiz-adv-x="1217" d="M664 74Q639 74 586 57Q493 77 456 122T418 262Q418 471 639 471Q759 471 824 387T889 184Q889 51 820 -41T623 -152Q543 -164 485 -172T385 -196T319 -250Q327 -158 402 -120T563 -42T664 74Z" />
<glyph unicode="-" glyph-name="hyphen" horiz-adv-x="1593" d="M262 1241H1343H1376Q1430 1241 1462 1199T1495 1106Q1495 983 1352 983H262Q178 983 132 1009T86 1110Q86 1154 122 1197T201 1241H262Z" />
<glyph unicode="." glyph-name="period" horiz-adv-x="1217" d="M319 225Q319 341 398 406T598 471Q717 471 807 405T897 225Q891 105 810 40T606 -25Q491 -25 405 41T319 225Z" />
<glyph unicode="/" glyph-name="slash" horiz-adv-x="2048" d="M49 250L1671 2830Q1686 2860 1698 2878T1720 2912Q1816 2961 1864 2961Q1930 2961 1982 2912T2040 2802Q2040 2760 1966 2642L352 66Q288 -25 176 -25Q111 -25 64 21T16 127Q16 143 8 152Q12 174 49 250Z" />
<glyph unicode="0" glyph-name="zero" horiz-adv-x="2425" d="M176 1184Q182 1757 281 2105T598 2626Q841 2810 1217 2810Q1508 2810 1671 2712Q1823 2628 1823 2519Q1823 2448 1798 2376Q2241 2264 2241 1360Q2241 878 2143 502T1720 16Q1609 -25 1470 -25Q1423
-25 1328 -13T1176 0Q1121 0 1029 -12T889 -25Q611 -25 452 166T235 629T176 1184ZM586 1552Q586 1087 724 832T1200 569Q1578 569 1729 844T1880 1528Q1880 1840 1806 2015Q1765 2134 1688 2134Q1662 2134 1638 2128T1562 2103T1495 2081Q1431 2093 1401 2120T1352
2208Q1362 2246 1424 2320T1487 2449Q1487 2534 1400 2580T1184 2626Q930 2626 800 2458T633 2067T586 1552Z" />
<glyph unicode="1" glyph-name="one" horiz-adv-x="1663" d="M664 504V2257Q614 2234 512 2165T337 2059T184 2023Q110 2023 55 2057T0 2142Q0 2197 29 2215T127 2249Q551 2350 991 2728Q1086 2810 1118 2810Q1170 2810 1184 2753Q1192 2728 1192 2662V496Q1192
365 1294 279Q1332 253 1374 224T1439 165T1462 94Q1462 38 1370 7T1208 -25Q1162 -25 1075 -13T938 0Q883 0 790 -12T647 -25Q556 -25 487 8Q461 17 427 45T393 102Q393 140 416 168T503 240T569 287Q664 368 664 504Z" />
<glyph unicode="2" glyph-name="two" horiz-adv-x="2425" d="M209 2081Q209 2289 283 2448T573 2709T1176 2810Q1513 2810 1732 2715T2051 2459T2150 2097Q2150 1845 2017 1665T1628 1326T1165 1044T831 782Q754 711 754 655Q754 569 905 569Q945 569 1053 581T1225
594Q1302 594 1436 582T1638 569Q1750 569 1774 616T1810 778T1872 942Q1927 999 1982 999Q2069 999 2114 938Q2081 927 2061 881T2040 791Q2040 763 2058 725T2103 642T2167 537Q2298 309 2298 201Q2298 57 1974 -16Q1937 -25 1815 -25Q1699 -25 1503 -13T1184
0Q1072 0 873 -12T578 -25Q138 -25 127 152Q127 397 520 754Q581 805 742 934T1018 1162T1236 1368T1425 1593Q1577 1796 1577 1999Q1577 2210 1464 2405T1032 2601Q854 2601 712 2505T569 2241Q569 2121 641 2048T831 1974Q887 1974 928 2004T1018 2091T1106 2178T1200
2208Q1278 2208 1311 2142Q1257 2127 1257 2064Q1282 1950 1282 1896Q1282 1774 1213 1683T1031 1543T799 1495Q542 1495 376 1660T209 2081Z" />
<glyph unicode="3" glyph-name="three" horiz-adv-x="2425" d="M94 504Q108 691 218 810T512 930Q606 930 672 864Q623 828 623 729Q623 646 693 608T856 569Q1049 586 1118 586Q1168 586 1248 578T1393 569Q1536 569 1616 679T1696 938Q1696 1187 1528 1343T1098
1561Q1047 1570 979 1579T815 1602Q623 1634 623 1720Q623 1777 774 1839Q879 1880 1108 1955T1442 2073Q1679 2169 1679 2327Q1679 2480 1544 2553T1233 2626Q1093 2626 967 2594T840 2494Q840 2454 867 2440T982 2396T1090 2335Q1106 2301 1106 2257Q1106 2201
1073 2159Q1041 2224 975 2224Q948 2224 853 2208T680 2191Q549 2191 434 2261T319 2466Q326 2670 572 2740T1192 2810Q1585 2810 1896 2710T2208 2318Q2208 2150 2082 2052T1737 1888Q1659 1865 1583 1850T1428 1825T1286 1806Q1142 1783 1108 1777T1073 1753Q1073
1722 1208 1696Q1709 1593 2013 1401T2318 774Q2312 547 2210 366T1927 80T1520 -25Q1462 -25 1349 -13T1159 0Q1064 0 940 -12T745 -25Q583 -25 433 37T189 219T94 504Z" />
<glyph unicode="4" glyph-name="four" horiz-adv-x="2425" d="M41 872Q41 940 116 1055T426 1495Q646 1815 738 1970T831 2241Q831 2300 802 2365T743 2496T713 2617Q713 2682 760 2715T897 2769Q999 2785 1266 2785Q1966 2785 1966 2687Q1966 2667 1905 2625T1806
2545T1769 2449V1151Q1541 1167 1495 1167Q1464 1167 1380 1163T1241 1159V2433Q1241 2494 1225 2519T1159 2544Q1080 2544 1057 2433Q1003 2166 905 1864Q865 1739 823 1636T725 1410T655 1248T639 1167Q639 1081 791 1081Q887 1081 1069 1095T1360 1110Q1497
1110 1815 1090Q2023 1090 2023 1241Q2023 1291 1982 1384Q2086 1344 2179 1306T2328 1203T2384 1016Q2384 825 2279 706T1999 586Q1925 586 1782 608T1528 631Q1068 594 586 594Q64 601 41 872ZM1241 553Q1335 569 1536 569Q1583 569 1664 557T1769 545V410Q1769
363 1929 262Q2056 180 2056 127Q2056 69 1929 25Q1815 -25 1720 -25Q1693 -25 1622 -13T1511 0Q1457 0 1389 -12T1282 -25Q1193 -25 1073 16Q930 80 930 127Q939 193 1015 234T1163 315T1241 426V553Z" />
<glyph unicode="5" glyph-name="five" horiz-adv-x="2425" d="M569 1823Q565 1964 512 2074T361 2353T262 2576Q262 2669 334 2711T512 2753Q603 2753 769 2728T1081 2703Q1179 2703 1425 2728T1745 2753Q1868 2753 1918 2731T1974 2626Q1974 2500 1884 2410T1667
2276T1434 2232Q1370 2232 1317 2241T1168 2273T1010 2307T872 2318Q758 2318 737 2249Q737 2208 729 2175Q737 2096 742 2043T751 1955T754 1888Q1118 1929 1192 1929Q1578 1929 1864 1745Q2076 1608 2183 1369T2290 848Q2290 642 2205 440T1960 107T1593 -25Q1500
-25 1343 -13T1110 0Q1014 0 899 -12T705 -25Q552 -25 421 48T212 248T135 528Q135 714 233 848Q323 967 479 967Q736 967 762 807Q631 797 631 664Q631 578 807 578Q847 578 933 588T1065 598Q1134 598 1232 588T1368 578Q1465 578 1545 639T1673 796T1720 983Q1720
1191 1627 1357T1367 1618T991 1712Q931 1712 745 1688Q745 1527 671 1407T446 1286Q351 1286 301 1348T250 1511Q250 1720 569 1823ZM569 1655Q535 1649 515 1640T477 1616T443 1582T410 1544Q423 1479 471 1479Q547 1479 569 1536Q569 1539 573 1548T578 1569Q578
1590 574 1614T569 1655Z" />
<glyph unicode="6" glyph-name="six" horiz-adv-x="2425" d="M160 1286Q160 2005 463 2425Q616 2633 774 2693T1225 2753Q2056 2753 2056 2642Q2056 2481 1923 2357T1630 2232Q1546 2232 1483 2269T1333 2381T1180 2496T1032 2535Q882 2535 769 2398T594 2052T528
1630Q537 1602 537 1544H545Q611 1680 721 1777T981 1924T1303 1974Q1577 1974 1797 1841T2141 1481T2265 983Q2265 749 2174 515T1905 128T1487 -25Q1420 -25 1287 -17T1073 -8Q969 -25 958 -25Q686 -25 504 160Q160 503 160 1286ZM1786 1167Q1786 1313 1718 1444T1528
1656T1249 1737Q954 1737 809 1564T664 1126Q664 850 826 714T1233 569Q1456 569 1618 716T1786 1167Z" />
<glyph unicode="7" glyph-name="seven" horiz-adv-x="2191" d="M782 385Q804 409 841 619T905 930Q1167 1801 1602 2433L1585 2441Q1528 2384 1399 2321T1090 2257Q802 2257 569 2400L561 2376Q729 2158 729 1999Q729 1874 666 1777T496 1679Q418 1679 377 1738T336
1855Q360 1847 385 1847Q438 1847 438 1913Q438 1955 409 2017T328 2130Q300 2162 196 2252T42 2413T-8 2576Q-8 2728 352 2728Q489 2728 686 2716T1032 2703Q1128 2703 1340 2728T1712 2753Q1851 2753 1957 2695T2064 2576Q2064 2539 2036 2503T1946 2400Q1789
2236 1687 2040T1531 1634T1455 1201T1434 729Q1434 471 1479 385Q1494 356 1519 328T1587 263T1638 217Q1704 164 1704 119Q1704 60 1620 18T1417 -25Q1342 -25 1266 -13T1135 0Q1069 0 990 -12T856 -25Q737 -25 641 32T545 143Q545 190 580 223T689 307T782 385Z"
/>
<glyph unicode="8" glyph-name="eight" horiz-adv-x="2425" d="M864 1729Q676 1791 494 1936T311 2273Q311 2554 589 2653T1200 2753Q1514 2753 1720 2693T2025 2527T2130 2281Q2130 2099 1967 1959T1569 1729Q1769 1641 1921 1478T2157 1107T2241 680Q2241 483
2167 323T1945 69T1593 -25Q1540 -25 1414 -13T1208 0Q1114 0 987 -12T807 -25Q619 -25 477 71T259 332T184 688Q184 1049 371 1331T864 1729ZM1671 2224Q1671 2378 1539 2456T1200 2535Q977 2535 870 2446T762 2224Q762 2114 826 2016T993 1858T1208 1798Q1329
1798 1435 1852T1606 2004T1671 2224ZM1831 1008Q1831 1150 1746 1284T1518 1502T1217 1585Q916 1579 757 1408T594 1016Q594 867 674 757T897 647Q932 647 1037 659T1208 672Q1259 672 1351 656T1454 639Q1484 656 1569 666T1696 713Q1831 804 1831 1008Z" />
<glyph unicode="9" glyph-name="nine" horiz-adv-x="2425" d="M143 2015Q143 2785 1184 2785Q1705 2785 1974 2503Q2281 2191 2281 1434Q2278 1237 2256 1046T2181 670T2038 338T1815 102Q1626 -25 1384 -25Q1368 -25 1283 -13T1126 0Q1031 0 893 -12T705 -25Q570
-25 454 50T269 247T201 504Q201 636 254 731T380 874T512 922Q535 922 631 905Q655 913 688 913Q606 818 606 754Q606 670 664 616T807 561Q844 561 924 569T1049 578Q1107 578 1207 566T1360 553Q1542 553 1667 693T1852 1037T1913 1417Q1913 1585 1905 1663H1896Q1652
1286 1090 1286Q858 1286 639 1366T282 1612T143 2015ZM696 2073Q696 1853 849 1703T1225 1552Q1453 1552 1634 1683T1815 2089Q1815 2299 1646 2433T1233 2568Q997 2568 847 2436T696 2073Z" />
<glyph unicode=":" glyph-name="colon" horiz-adv-x="1217" d="M319 225Q319 341 398 406T598 471Q707 471 798 405T889 225Q889 106 807 41T606 -25Q484 -25 402 38T319 225ZM319 1679Q319 1809 405 1869T631 1929Q729 1929 809 1857T889 1679Q889 1561 808 1498T606
1434Q484 1434 402 1497T319 1679Z" />
<glyph unicode=";" glyph-name="semicolon" horiz-adv-x="1217" d="M664 74Q639 74 586 57Q493 77 456 122T418 262Q418 348 471 409T639 471Q759 471 824 387T889 184Q889 51 820 -41T623 -152Q543 -164 485 -172T385 -196T319 -250Q327 -161 396 -123T554 -42T664
74ZM319 1679Q319 1809 405 1869T631 1929Q729 1929 809 1857T889 1679Q889 1561 808 1498T606 1434Q484 1434 402 1497T319 1679Z" />
<glyph unicode="&lt;" glyph-name="less" horiz-adv-x="2458" d="M184 848V1217L2265 2105L2273 1663L782 1032L2273 410V-33L184 848Z" />
<glyph unicode="=" glyph-name="equal" horiz-adv-x="2458" d="M193 1266V1679H2265V1266H193ZM193 393V799H2265V393H193Z" />
<glyph unicode="&gt;" glyph-name="greater" horiz-adv-x="2458" d="M2273 848L184 -33V410L1671 1032L184 1663V2105L2273 1217V848Z" />
<glyph unicode="?" glyph-name="question" horiz-adv-x="1896" d="M553 209Q553 312 634 379T823 446Q925 446 1011 381T1098 209Q1098 107 1014 41T823 -25Q711 -25 632 38T553 209ZM16 2298Q23 2658 279 2809T872 2961Q1162 2961 1360 2858T1651 2587T1745 2224Q1745
2037 1663 1866T1286 1503Q1211 1456 1099 1386T897 1243T747 1080T672 881Q691 860 698 837T716 807T770 799H905Q958 799 958 840Q958 853 939 906T913 1008Q913 1040 936 1069T1008 1098Q1091 1098 1106 1081Q1081 1069 1081 1032Q1081 998 1093 974T1140 900T1191
817T1208 745Q1208 675 1159 653T1032 631H639Q479 631 479 782Q479 986 571 1146T849 1526T1130 1913T1225 2290Q1225 2769 815 2769Q654 2769 563 2670T471 2400Q471 2286 512 2218T623 2150Q663 2150 691 2171T755 2235T815 2298T881 2318Q924 2318 1008 2257Q950
2238 950 2183Q950 2174 962 2137T975 2073Q975 1908 853 1826T545 1737Q305 1737 161 1896T16 2298Z" />
<glyph unicode="@" glyph-name="at" horiz-adv-x="3281" d="M143 1401Q166 2188 672 2617Q887 2790 1158 2875T1720 2961Q2220 2961 2585 2720Q3119 2375 3129 1679Q3129 1431 3030 1191T2748 799T2327 647Q2198 647 2113 707T1987 843T1946 958H1937Q1859 839
1714 747T1434 655Q1231 655 1124 812T1016 1176Q1016 1417 1125 1666T1432 2078T1880 2241Q1981 2241 2035 2195T2167 2040L2208 2175H2535L2298 1167Q2281 1099 2281 1065Q2281 864 2408 864Q2484 864 2563 937T2695 1126Q2822 1374 2822 1671Q2822 1997 2669
2223T2265 2560T1720 2671Q1229 2671 942 2318Q647 1959 647 1352Q647 1041 800 792T1214 402T1778 262Q2037 262 2226 317T2609 479L2654 242Q2174 -25 1761 -25Q942 -14 487 496Q368 632 292 786T179 1097T143 1401ZM1425 1266Q1425 1142 1466 1032T1610 922Q1764
922 1866 1066T2015 1393Q2030 1443 2051 1552T2073 1720Q2073 1828 2037 1917T1905 2007Q1819 2001 1723 1924T1561 1737Q1425 1522 1425 1266Z" />
<glyph unicode="A" glyph-name="A" horiz-adv-x="2810" d="M135 430Q135 665 257 1036T557 1797T897 2486Q983 2614 983 2695Q983 2727 897 2744H815Q664 2744 664 2671Q664 2580 807 2474L688 2265Q498 2381 374 2507T250 2744Q250 2859 351 2898T639 2937H2081Q2237
2937 2341 2923T2523 2846T2609 2654Q2609 2563 2555 2483T2425 2343T2248 2224T2073 2122L1065 1511Q823 1374 684 1230T545 872Q545 623 696 623Q736 623 771 639T807 655Q823 655 823 639Q819 626 815 613T807 586Q807 532 815 469T823 360Q823 -25 479 -25Q135
-25 135 430ZM1528 2134Q1511 2193 1482 2312T1434 2486Q1387 2626 1294 2626Q1206 2626 1057 2351Q1018 2275 967 2157T841 1856T713 1544L721 1536L1778 2175Q1908 2253 1970 2294T2091 2408T2150 2568Q2150 2627 2124 2673T2040 2720Q1946 2720 1946 2609Q1946
2514 1974 2417Q1775 2268 1528 2134ZM1831 664L1618 1745L2056 2007L2318 782Q2372 528 2425 426Q2444 386 2480 357T2570 302T2654 258Q2802 146 2802 94Q2802 35 2716 5T2527 -25Q2468 -25 2366 -13T2191 0Q2103 0 1988 -12T1815 -25Q1722 -25 1642 10T1561
86Q1569 154 1655 217Q1670 229 1735 263T1836 327T1872 393Q1872 444 1831 664Z" />
<glyph unicode="B" glyph-name="B" horiz-adv-x="2736" d="M-82 2703Q-82 2807 27 2872T377 2937H1798Q2112 2937 2260 2845T2408 2560Q2408 2239 1896 1905Q2151 1801 2304 1619T2517 1231T2576 823Q2576 415 2351 176Q2126 -49 1778 -49Q1729 -49 1536 -25T1159
0Q1030 0 830 -12T537 -25Q411 -25 295 0Q86 47 86 111Q86 199 270 295Q387 359 545 430V2122L1065 1864V782Q1065 545 1266 545H1569Q1954 545 1954 1065Q1954 1322 1818 1502T1479 1778Q1372 1825 1172 1908T797 2069T478 2218T176 2384Q45 2464 -18 2538T-82
2703ZM545 2511Q545 2671 455 2671Q369 2671 369 2568Q369 2497 578 2384Q743 2289 939 2210T1330 2072T1737 1966Q1847 2073 1888 2166T1929 2384Q1929 2587 1799 2653T1417 2720Q1251 2720 1158 2690T1065 2552V2265Q1041 2276 910 2329T699 2421T545 2511Z"
/>
<glyph unicode="C" glyph-name="C" horiz-adv-x="2654" d="M193 1376Q193 1758 338 2125T770 2726T1454 2961Q1727 2961 1945 2876T2285 2639T2408 2290Q2408 2129 2334 2008T2129 1820T1839 1753Q1543 1753 1393 1974Q1355 2051 1345 2117T1327 2249Q1305 2327
1241 2327Q1196 2327 1184 2273Q1188 2265 1192 2249T1200 2224Q1170 2183 1098 2183Q950 2183 950 2343Q950 2431 1018 2487T1176 2544Q1253 2544 1306 2510T1429 2409T1546 2312T1663 2281Q1745 2281 1800 2333T1855 2478Q1855 2606 1747 2687T1417 2769Q1148
2769 958 2606T673 2189T578 1679Q578 1340 731 1083T1132 688T1655 545Q1881 545 2106 631T2392 950Q2585 919 2585 598Q2585 415 2462 285T2150 82Q1887 -25 1544 -25Q969 -25 606 319Q478 440 387 597T244 949T193 1376Z" />
<glyph unicode="D" glyph-name="D" horiz-adv-x="2736" d="M537 774V2130Q854 1981 1065 1847V1593Q1138 1613 1151 1778Q1151 1930 856 2081Q757 2134 568 2220T262 2367Q-66 2544 -66 2744Q-52 2877 66 2912Q135 2937 360 2937H1266Q1696 2937 1981 2716T2401
2124T2535 1303Q2535 699 2191 328Q2040 157 1828 66T1360 -25Q1275 -25 1132 -13T897 0Q803 0 655 -12T438 -25Q-16 -25 -16 152Q-16 238 94 336Q197 429 385 569Q537 693 537 774ZM537 2519Q537 2720 446 2720Q413 2720 383 2696T352 2626Q352 2553 412 2496T535
2408T713 2327Q794 2288 929 2229T1151 2130Q1511 1946 1511 1737Q1505 1589 1412 1528T1065 1454V1081Q1065 1019 1110 983Q1117 976 1138 959T1168 931T1176 905Q1176 882 1157 866T1083 821T1008 782Q885 717 782 614Q927 569 1151 569Q1461 569 1641 658T1929
913Q2089 1161 2089 1618Q2089 1883 2000 2143T1725 2574T1266 2744Q1206 2744 1065 2703V2273L537 2519Z" />
<glyph unicode="E" glyph-name="E" horiz-adv-x="2503" d="M438 545V2290Q438 2422 369 2492T143 2654Q33 2719 33 2777Q44 2864 213 2900T614 2937H1794Q2092 2937 2214 2893T2343 2761Q2343 2614 1982 2400Q1842 2316 1604 2189T1327 2040Q1135 1939 1135 1896Q1135
1888 1147 1876T1176 1864Q1238 1864 1379 1919T1602 1974Q1696 1974 1787 1942T1938 1846T1999 1696Q1999 1486 1823 1454V1487Q1823 1561 1737 1561Q1657 1561 1555 1535T1350 1481T1167 1454Q1037 1454 955 1540T872 1729Q872 1824 926 1898T1081 2064Q1146
2124 1325 2245T1528 2384Q1638 2480 1667 2509T1696 2576Q1696 2673 1552 2703Q1479 2720 1319 2720Q1159 2720 1098 2695Q958 2670 958 2478L967 2073Q774 1904 774 1712Q774 1564 967 1409V840Q967 718 1037 654T1241 561Q1393 520 1720 520Q1856 520 1950 531T2120
589T2216 737Q2304 707 2376 617T2449 377Q2449 163 2288 69T1896 -25Q1800 -25 1588 -13T1217 0Q1044 0 770 -12T438 -25Q328 -25 233 0Q149 24 83 63T16 143Q16 210 152 287Q157 290 250 342T391 442T438 545Z" />
<glyph unicode="F" glyph-name="F" horiz-adv-x="2281" d="M410 545V2290Q410 2390 367 2453T251 2563T82 2671Q0 2725 0 2777Q0 2826 72 2862T242 2912Q429 2937 578 2937H1720Q2011 2937 2159 2900T2310 2761Q2310 2641 2032 2449Q1933 2387 1788 2307T1475
2138T1192 1982Q1106 1930 1106 1896Q1106 1864 1143 1864Q1175 1864 1241 1896Q1427 1974 1569 1974Q1728 1974 1847 1894T1966 1696Q1966 1598 1921 1532T1794 1454Q1794 1457 1796 1472T1798 1495Q1798 1561 1704 1561Q1625 1561 1524 1535T1323 1481T1143 1454Q1001
1454 921 1545T840 1745Q840 1927 1217 2191Q1228 2198 1385 2306T1603 2472T1663 2576Q1663 2671 1563 2695T1286 2720Q1119 2720 1025 2673T930 2478V2064Q847 2003 792 1912T737 1720Q737 1573 930 1409V463Q930 393 976 356T1124 279T1279 204T1343 102Q1343
35 1243 5T1057 -25Q993 -25 865 -13T664 0Q572 0 455 -12T295 -25Q41 -25 41 74Q41 136 89 175T242 270Q410 388 410 545Z" />
<glyph unicode="G" glyph-name="G" horiz-adv-x="2810" d="M193 1376Q193 1986 430 2400Q579 2653 857 2807T1536 2961Q1691 2957 1807 2954T2021 2945T2191 2929Q2326 2903 2396 2851T2466 2703Q2466 2616 2401 2553T2240 2442T2056 2351Q1919 2290 1495 2073Q1274
1936 1274 1864Q1274 1843 1288 1796T1303 1704Q1303 1614 1252 1559T1098 1503Q1004 1503 951 1569T897 1729Q897 1839 979 1925T1174 2078T1409 2216Q1743 2412 1761 2425Q1872 2523 1872 2576Q1872 2652 1776 2686T1561 2720Q1123 2720 889 2474Q639 2212 639
1688Q639 1014 1024 705Q1176 598 1417 598Q1663 598 1769 631Q1896 675 1896 791V1384Q1896 1438 1834 1491T1710 1597T1647 1704Q1647 1794 1823 1794Q1881 1794 1995 1782T2175 1769Q2270 1769 2353 1781T2494 1794Q2542 1794 2634 1769Q2720 1756 2720 1712Q2720
1672 2654 1622Q2622 1597 2568 1554T2486 1479Q2449 1434 2449 1360V455Q2449 403 2471 370T2544 289T2620 205T2646 119Q2646 73 2486 25Q2348 -25 2191 -25Q2122 -25 1984 -13T1778 0Q1667 0 1527 -12T1343 -25Q993 -25 731 171T331 691T193 1376Z" />
<glyph unicode="H" glyph-name="H" horiz-adv-x="2654" d="M487 426V2130Q531 2116 663 2080T873 2019T1016 1966V430Q1016 396 1056 364T1187 279T1335 184Q1384 137 1384 102Q1384 31 1284 3T1090 -25Q1056 -25 942 -13T745 0Q653 0 549 -12T410 -25Q300 -25
197 4T94 111Q94 160 303 287Q345 312 391 339T462 386T487 426ZM-82 2703Q-82 2937 201 2937H1847Q2017 2937 2137 2904T2257 2744Q2257 2693 2204 2626T2150 2519Q2150 2483 2191 2441Q2124 2408 2081 2408Q2036 2408 1998 2424T1930 2467T1860 2544T1806 2609Q1745
2695 1442 2695H1143Q1016 2695 1016 2585V2384Q994 2390 861 2415T639 2465T487 2527V2552Q487 2590 465 2642T410 2695Q374 2695 351 2664T328 2585Q338 2447 823 2327Q963 2297 1206 2264T1599 2203T1910 2111T2200 1929Q2466 1676 2466 1327Q2466 995 2349
713T1974 -49Q1921 -182 1921 -250Q1921 -301 1947 -343T2015 -385Q2031 -385 2051 -382T2095 -374T2142 -366T2183 -360Q2249 -360 2300 -417T2351 -545Q2351 -648 2241 -713Q2228 -664 2167 -664Q2127 -664 2062 -680T1962 -696Q1827 -696 1732 -607T1630 -336Q1630
-217 1725 70T1866 533T1913 958Q1913 1201 1865 1375T1715 1672T1454 1888Q1306 1976 1142 2033T733 2161T385 2273Q-82 2463 -82 2703Z" />
<glyph unicode="I" glyph-name="I" horiz-adv-x="2048" d="M1081 922V2105Q1081 2148 1063 2180T1017 2237T950 2298Q905 2325 905 2359Q905 2409 975 2441Q1001 2453 1155 2490T1393 2552Q1520 2587 1520 2646Q1520 2696 1379 2708T983 2720Q580 2720 569 2634Q569
2588 594 2554T673 2470T754 2381T782 2290Q782 2189 705 2131T487 2073Q314 2073 270 2232Q369 2244 369 2298Q369 2334 342 2361T233 2458Q137 2542 93 2594T49 2720Q49 2870 385 2912Q586 2937 983 2937Q1308 2937 1665 2893T2023 2736Q2023 2659 1977 2625T1794
2519Q1703 2475 1667 2440T1630 2306V762Q1630 701 1635 670T1651 625T1675 604T1712 586Q1785 542 1794 401Q1794 236 1609 106T897 -25Q659 -25 481 -3T164 118T25 418Q25 611 184 754Q215 781 271 822T352 888T377 938Q377 983 360 1008Q377 1016 430 1016Q561
1016 561 905Q561 868 549 801T537 696Q554 596 614 558T791 520Q1081 520 1081 922Z" />
<glyph unicode="J" glyph-name="J" horiz-adv-x="2048" d="M1081 393V2105Q1081 2148 1063 2180T1017 2237T950 2298Q905 2325 905 2359Q905 2409 975 2441Q1001 2453 1155 2490T1393 2552Q1520 2587 1520 2646Q1520 2696 1379 2708T983 2720Q580 2720 569 2634Q569
2588 594 2554T673 2470T754 2381T782 2290Q782 2189 705 2131T487 2073Q314 2073 270 2232Q369 2244 369 2298Q369 2334 342 2361T233 2458Q137 2542 93 2594T49 2720Q49 2870 385 2912Q586 2937 983 2937Q1308 2937 1665 2893T2023 2736Q2023 2659 1977 2625T1794
2519Q1703 2475 1667 2440T1630 2306V233Q1630 181 1637 147T1655 97T1687 71T1712 57Q1786 0 1794 -135Q1794 -561 897 -561Q530 -561 278 -481T25 -119Q25 74 184 217Q224 253 274 289T351 350T377 401Q377 455 360 479Q368 479 394 483T430 487Q561 487 561
377Q561 340 549 273T537 168Q537 64 604 28T791 -8Q1081 -8 1081 393Z" />
<glyph unicode="K" glyph-name="K" horiz-adv-x="2810" d="M487 2023Q612 1949 1016 1798V471Q1016 415 1048 381T1146 314T1311 233Q1425 171 1425 102Q1425 30 1328 3T1135 -25Q1078 -25 965 -13T745 0Q619 0 512 -12T377 -25Q266 -25 193 4T119 82Q119 130
184 184Q188 187 289 251T438 377T487 537V2023ZM487 2466Q487 2646 418 2646Q336 2646 336 2552Q336 2403 672 2232Q782 2170 963 2101T1282 2007Q1485 2096 1650 2241T1815 2568Q1815 2615 1801 2713T1786 2839Q1786 2937 1880 2937H2478Q2545 2937 2573 2909T2601
2847Q2601 2805 2527 2769Q2246 2594 1974 2290Q1849 2159 1752 2082T1536 1962V1954Q1741 1923 1870 1800T2067 1510T2174 1156T2265 737Q2310 487 2425 377Q2425 377 2654 258Q2822 148 2822 94Q2822 -25 2576 -25Q2502 -25 2398 -13T2224 0Q2129 0 2033 -12T1921
-25Q1836 -25 1806 25Q1758 97 1741 193T1713 439T1688 655Q1623 996 1567 1197T1380 1591T1024 1880Q513 2090 201 2343Q-25 2549 -25 2736Q-25 2937 377 2937H983Q1176 2937 1296 2899T1417 2785Q1417 2748 1382 2718T1267 2642T1151 2568Q1024 2459 1024 2310V2175Q652
2329 487 2466Z" />
<glyph unicode="L" glyph-name="L" horiz-adv-x="2351" d="M487 913V2527Q487 2594 451 2630T340 2703T234 2768T201 2855Q201 2937 369 2937H999Q1142 2937 1204 2926T1266 2863Q1266 2825 1235 2796T1143 2728T1065 2671Q1016 2614 1016 2552V958Q1016 930 1034
915T1093 878T1155 836T1176 782Q1176 736 1123 704T999 650T881 614Q676 564 344 369Q209 274 209 233Q209 184 328 184Q421 184 537 209Q646 241 745 279T960 366T1225 479Q1569 614 1761 614Q1806 614 1858 606T1921 598Q1966 598 1966 631Q1939 688 1903 746T1810
885T1737 991Q1610 1181 1610 1266Q1610 1389 1671 1450Q1737 1524 1737 1585Q1765 1561 1839 1522T1952 1442T1991 1335Q1991 1284 1969 1231T1946 1143Q1946 1072 1972 1001T2032 868T2122 713Q2181 602 2225 521T2298 385Q2351 255 2351 242Q2351 140 2175 57Q1971
-25 1794 -25Q1738 -25 1649 -14T1463 11T1270 35T1065 49Q1022 49 774 12T393 -25Q202 -25 60 29T-82 193Q-82 246 -31 301T137 447T319 594Q487 743 487 872V913Z" />
<glyph unicode="M" glyph-name="M" horiz-adv-x="4014" d="M328 578Q328 900 382 1234T548 1885T823 2474Q828 2485 847 2523T882 2593T897 2634Q897 2679 762 2679Q701 2679 644 2659T586 2593Q597 2524 647 2486Q661 2478 689 2467T721 2449L623 2241Q480 2310
382 2366T210 2507T135 2695Q135 2802 237 2869T455 2937H3711Q3864 2937 3955 2888T4047 2687Q4047 2536 3885 2399T3518 2183L3457 2392Q3518 2408 3579 2451T3641 2552Q3641 2687 3490 2687Q3314 2687 3314 2617Q3314 2570 3341 2492T3375 2376Q3527 1890 3602
1358T3678 279Q3662 87 3609 16Q3577 -25 3490 -25Q3463 -25 3375 -13T3215 0Q3172 0 3092 -12T2937 -25Q2662 -25 2662 66Q2662 86 2682 109T2741 163T2823 224T2888 270Q2934 303 2982 338T3064 412T3113 496Q3138 610 3138 782Q3138 1030 3105 1249Q3021 1982
2847 2318Q2707 2652 2474 2662Q2322 2662 2282 2532T2241 2208Q1872 2208 1712 2224Q1712 2687 1442 2687Q1184 2687 942 2150Q829 1898 759 1582T688 1049Q691 815 716 684T782 490T887 389T1032 303Q1257 166 1257 102Q1257 0 1049 0Q980 0 893 12T737 25Q671
25 592 13T471 0Q399 0 377 57Q328 143 328 578ZM1024 2122L1098 2281Q1268 2212 1504 2173T1999 2134Q2436 2134 2822 2191L2879 2023Q2471 1974 2007 1974Q1430 1974 1024 2122ZM1712 463V1913Q1760 1909 1858 1905T2007 1896Q2089 1905 2241 1905V426Q2241 371
2278 336T2396 253T2518 165T2560 66Q2560 -25 2265 -25Q2217 -25 2116 -13T1929 0Q1862 0 1773 -12T1618 -25Q1368 -25 1368 86Q1368 144 1411 181T1539 263T1668 351T1712 463Z" />
<glyph unicode="N" glyph-name="N" horiz-adv-x="3113" d="M545 479V1798L1065 1479V446Q1078 413 1109 383T1180 330T1297 268T1384 225Q1479 179 1479 102Q1479 48 1409 8T1225 -33Q1072 -33 959 -17T831 0Q732 0 600 -20T410 -41Q145 -41 127 94Q139 163 194
202T348 284T496 366T545 479ZM-25 2527Q-25 2736 128 2848T553 2961Q937 2945 1151 2945Q1250 2945 1459 2953T1753 2961Q2790 2945 2810 2105Q2810 1733 2568 1368Q2468 1222 2398 1120T2280 926T2232 770Q2232 704 2273 664T2376 623Q2428 623 2539 651T2720
680Q2853 680 2938 585T3023 369Q3023 223 2993 134T2888 -25Q2870 -11 2864 -6T2848 6T2822 16Q2783 49 2744 49Q2683 49 2559 12T2343 -25Q2174 -25 2048 105T1921 487Q1924 658 1952 812T2037 1201T2125 1620T2159 2015Q2159 2187 2074 2339T1841 2581T1520
2671H1217Q1105 2671 1077 2646T1049 2576V2032L528 2343Q528 2466 520 2519Q520 2626 438 2626Q389 2620 363 2580T336 2486Q336 2427 355 2385T409 2314T508 2251T586 2208Q720 2120 955 1978T1339 1743T1630 1552Q1727 1481 1771 1422T1815 1282Q1815 1188 1769
1126Q1695 1043 1552 1032Q1467 1032 1388 1093T1266 1249Q1360 1261 1360 1319Q1360 1408 1149 1557T587 1907T201 2130Q-25 2290 -25 2527Z" />
<glyph unicode="O" glyph-name="O" horiz-adv-x="2728" d="M193 1409Q193 1954 393 2335Q536 2614 779 2787T1393 2961Q1677 2961 1897 2845T2265 2511Q2403 2307 2469 2022T2535 1417Q2535 1195 2494 966T2363 525T2130 160Q2031 64 1940 20T1712 -25Q1651 -25
1529 -13T1343 0Q1290 0 1186 -12T1024 -25Q772 -25 594 201Q193 640 193 1409ZM688 1110Q718 1325 791 1457T991 1696Q1069 1767 1199 1832T1491 1985T1733 2173T1815 2425Q1815 2579 1687 2661T1393 2744Q1126 2744 946 2586T682 2182T598 1679Q598 1314 680
1110H688ZM1991 2306H1982Q1957 2088 1819 1968T1411 1701T1007 1412T872 1024Q872 598 1401 598Q1646 598 1810 744T2052 1119T2130 1593Q2130 1853 2102 2007T1991 2306Z" />
<glyph unicode="P" glyph-name="P" horiz-adv-x="2654" d="M430 471V2408Q430 2507 366 2566T176 2703Q96 2752 86 2802Q86 2837 136 2858T255 2889T352 2904Q677 2937 1110 2937Q1645 2937 1982 2769Q2527 2500 2527 1864Q2527 1614 2409 1421T2085 1122T1630
1016Q1356 1016 1143 1157T930 1561Q934 1659 960 1697T1042 1793T1098 1896Q1098 1921 1073 1946Q1129 1966 1200 1966Q1296 1966 1365 1905T1434 1761Q1434 1561 1610 1561Q1790 1561 1872 1701T1954 2040Q1954 2226 1857 2383T1596 2630T1249 2720Q1127 2720
1043 2697T958 2585V1855Q823 1709 823 1552Q823 1343 958 1208V487Q958 451 991 410Q1150 293 1274 225Q1352 158 1352 111Q1352 40 1253 8T1065 -25Q1016 -25 920 -13T745 0Q652 0 536 -12T360 -25Q265 -25 166 7T66 111Q66 167 160 225Q181 241 262 286T387
373T430 471Z" />
<glyph unicode="Q" glyph-name="Q" horiz-adv-x="2728" d="M1135 -418Q1135 -359 1150 -309T1196 -191T1241 -86Q1309 -66 1368 -66Q1398 -66 1470 -82Q1470 -184 1552 -184Q1582 -184 1629 -180T1704 -176Q1798 -176 1867 -236T1937 -393Q1937 -550 1847 -614Q1838
-561 1737 -561Q1691 -561 1574 -596T1376 -631Q1272 -631 1204 -574T1135 -418ZM193 1409Q193 1954 393 2335Q536 2614 779 2787T1393 2961Q1677 2961 1897 2845T2265 2511Q2403 2307 2469 2022T2535 1417Q2535 1195 2494 966T2363 525T2130 160Q2031 64 1940
20T1712 -25Q1651 -25 1529 -13T1343 0Q1290 0 1186 -12T1024 -25Q772 -25 594 201Q193 640 193 1409ZM688 1110Q718 1325 791 1457T991 1696Q1069 1767 1199 1832T1491 1985T1733 2173T1815 2425Q1815 2579 1687 2661T1393 2744Q1126 2744 946 2586T682 2182T598
1679Q598 1314 680 1110H688ZM1991 2306H1982Q1957 2088 1819 1968T1411 1701T1007 1412T872 1024Q872 598 1401 598Q1646 598 1810 744T2052 1119T2130 1593Q2130 1853 2102 2007T1991 2306Z" />
<glyph unicode="R" glyph-name="R" horiz-adv-x="2879" d="M504 504V2150L1032 1888V471Q1032 419 1070 379T1183 292T1282 225Q1384 150 1384 86Q1384 45 1274 0Q1197 -25 1090 -25Q1065 -25 973 -13T799 0Q717 0 599 -12T418 -25Q102 -25 102 86Q102 145 201
217Q224 234 316 286T456 387T504 504ZM-41 2736Q-41 2837 48 2887T270 2937H1962Q2433 2937 2433 2626Q2433 2457 2224 2280T1745 1991L2167 1798Q2253 1757 2294 1671T2352 1475T2384 1257Q2433 1041 2474 782Q2487 693 2496 634T2522 526T2569 431T2654 344Q2700
314 2769 276T2847 233Q2945 173 2945 119Q2945 56 2845 16T2671 -25Q2623 -25 2538 -13T2400 0Q2346 0 2259 -12T2130 -25Q2057 -25 2024 33T1981 176T1966 328Q1932 923 1761 1376Q1689 1523 1564 1641T1295 1845T902 2053T639 2183Q636 2184 517 2247T334 2349T217
2425Q-41 2586 -41 2736ZM1032 2281Q770 2393 512 2560Q512 2695 426 2695Q377 2695 360 2679Q319 2665 319 2626Q319 2586 456 2494T791 2298Q968 2203 1130 2146T1384 2089Q1508 2089 1643 2146T1870 2305T1962 2535Q1962 2635 1848 2677T1618 2720H1327Q1032
2720 1032 2527V2281Z" />
<glyph unicode="S" glyph-name="S" horiz-adv-x="2433" d="M94 791Q98 1026 195 1192T445 1443T762 1528Q930 1528 1039 1482T1217 1363T1332 1242T1425 1192Q1440 1192 1454 1196T1470 1200Q1470 881 1233 881Q1162 884 1111 901T1011 948T927 993T840 1008Q769
1008 721 961T672 840Q678 702 818 624T1159 545Q1397 545 1583 670T1769 1073Q1769 1449 1368 1696Q1244 1776 971 1905T623 2073Q424 2179 304 2306T184 2609Q184 2773 296 2855T586 2937H1630Q1904 2937 2040 2904Q2183 2866 2183 2736Q2183 2647 2126 2595T1954
2478Q1823 2413 1823 2351Q1823 2320 1880 2249Q1855 2241 1794 2241Q1713 2241 1645 2290T1577 2417Q1577 2470 1620 2532T1663 2634Q1663 2720 1425 2720H791Q712 2720 676 2684T639 2609Q639 2541 694 2490T832 2399T983 2327Q1352 2174 1636 1997T2109 1555T2298
938Q2298 692 2215 473T1941 115T1450 -25Q1400 -25 1310 -13T1143 0Q1062 0 976 -12T856 -25Q552 -25 328 201Q94 449 94 791Z" />
<glyph unicode="T" glyph-name="T" horiz-adv-x="2585" d="M1024 463V2601Q1024 2695 905 2695H664Q520 2695 520 2642Q520 2575 546 2512T623 2358T702 2198T729 2056Q729 1971 674 1909T537 1847Q385 1847 385 1982Q385 2033 404 2056T464 2115T504 2175Q504
2213 401 2306Q348 2353 192 2465T-41 2662Q-94 2698 -94 2777Q-94 2847 -22 2892T127 2937H2441Q2556 2937 2613 2889T2671 2769Q2671 2713 2592 2637T2357 2443T2137 2270T2073 2175Q2073 2151 2085 2135T2128 2088T2175 2036T2191 1982Q2191 1919 2148 1883T2040
1847Q1949 1847 1898 1909T1847 2064Q1847 2122 1873 2197T1944 2364T2015 2511Q2056 2618 2056 2642V2642Q2056 2695 1913 2695H1671Q1552 2695 1552 2609V463Q1552 411 1603 367T1748 275T1855 217Q1946 149 1946 102Q1946 35 1839 5T1638 -25Q1605 -25 1495
-13T1282 0Q1179 0 1068 -12T938 -25Q845 -25 738 5T631 102Q631 149 696 201Q727 226 818 280T950 369Q1024 417 1024 463Z" />
<glyph unicode="U" glyph-name="U" horiz-adv-x="2810" d="M250 1024Q253 1356 350 1620T549 2029T796 2355T942 2585Q942 2671 774 2671Q680 2671 647 2662Q594 2662 594 2617Q594 2565 774 2441L647 2281Q492 2363 311 2511Q119 2695 119 2810Q119 2937 352
2937H1135Q1352 2937 1352 2785Q1352 2720 1306 2642T1149 2424T983 2208Q854 2015 780 1830T705 1409Q705 1164 782 986T983 705Q1174 545 1470 545Q1880 545 1880 905Q1880 1044 1769 1266Q1643 1514 1433 1746T999 2081L1098 2232Q1348 2104 1551 1901T1872
1450H1880V2449Q1880 2511 1837 2554T1709 2647T1585 2732T1544 2822Q1544 2844 1571 2861T1641 2891T1704 2912Q1788 2937 1831 2937Q1872 2937 1957 2925T2114 2912Q2185 2912 2274 2924T2400 2937Q2522 2937 2633 2906T2744 2810Q2744 2782 2642 2703Q2597 2679
2552 2654T2469 2602T2408 2540T2384 2458V496Q2384 422 2439 378T2606 274T2753 176Q2761 144 2761 131Q2761 -25 2359 -25Q2292 -25 2153 0T1921 25Q1859 25 1621 0T1225 -25Q994 -25 803 64T487 303Q250 592 250 1024Z" />
<glyph unicode="V" glyph-name="V" horiz-adv-x="2728" d="M967 2736Q967 2747 952 2752T907 2762T848 2769H594Q287 2769 287 2654Q287 2630 315 2587T344 2503Q-94 2503 -94 2753Q-94 2916 258 2945Q426 2961 754 2961Q983 2961 1143 2945Q1440 2930 1450 2839Q1450
2738 1110 2576Q1048 2548 1003 2527T914 2487T831 2458Q775 2423 762 2384Q762 2375 791 2298Q869 2111 949 1915T1116 1519T1283 1152T1462 807Q1521 713 1577 713Q1644 713 1729 815Q1879 1018 2007 1401Q2150 1814 2150 2073Q2150 2254 2077 2399T1839 2544Q1744
2544 1274 2392Q986 2306 930 2306Q872 2306 872 2351Q872 2386 905 2408Q941 2408 1028 2450T1118 2494Q1270 2550 1372 2592T1638 2704T1966 2839Q2289 2961 2367 2961Q2503 2961 2587 2862T2671 2593Q2671 2475 2609 2270T2444 1814T2208 1286Q1950 723 1503
82Q1402 -74 1335 -74Q1237 -74 1176 102L250 2175Q237 2207 213 2220T144 2248T78 2281T57 2335Q57 2395 262 2466Q435 2497 696 2601Q967 2697 967 2736Z" />
<glyph unicode="W" glyph-name="W" horiz-adv-x="3711" d="M401 2376Q398 2398 389 2523T362 2688T295 2728Q184 2728 184 2671Q184 2635 244 2613T311 2585V2384Q192 2448 127 2490T9 2602T-49 2769Q-49 2842 26 2889T242 2937H1192Q1308 2937 1401 2900T1495
2761Q1495 2742 1483 2710T1470 2662Q1470 2654 1487 2601H1454Q1426 2601 1386 2593T1327 2585Q1256 2585 1208 2671Q1159 2736 1126 2736H991Q922 2736 922 2609Q922 2527 943 2301T1005 1795T1098 1282Q1170 920 1282 754Q1378 880 1476 1107T1639 1593T1704
2056Q1684 2059 1516 2081T1232 2123T1049 2167L1032 2351Q1450 2249 1937 2249Q2493 2249 3006 2384L2986 2183Q2453 2070 2281 2056Q2336 1203 2654 774Q2770 965 2857 1189T2997 1641T3077 2109T3105 2585Q3105 2671 3097 2695Q3079 2744 3047 2744H2736Q2692
2744 2679 2703Q2664 2687 2649 2650T2615 2594T2552 2576Q2527 2576 2488 2580T2417 2585Q2449 2606 2449 2642Q2449 2648 2413 2693T2376 2802Q2376 2856 2439 2896T2642 2937H3314Q3760 2937 3760 2712Q3760 2510 3449 2384L3465 2585Q3568 2635 3568 2679Q3568
2712 3525 2728T3441 2744Q3408 2744 3408 2720Q3391 2703 3391 2671Q3369 2336 3300 1973T3129 1241Q2926 530 2761 193Q2655 -25 2601 -25Q2583 -25 2553 -13T2511 0Q2499 0 2479 -12T2433 -25Q2409 -25 2388 -4T2359 41Q2299 117 2256 207T2170 420T2097 623Q2008
870 1847 1360H1839Q1693 871 1384 270Q1332 183 1303 132T1257 57Q1199 -25 1151 -25Q1134 -25 1081 0Q1074 0 1046 -12T999 -25Q954 -25 920 29T862 154T823 270Q712 582 629 935T493 1640T401 2376Z" />
<glyph unicode="X" glyph-name="X" horiz-adv-x="2810" d="M1192 1368Q1125 1469 1030 1613T839 1890T649 2139T463 2343Q409 2372 393 2383T377 2417Q377 2471 479 2478Q520 2485 673 2502T922 2544Q1159 2596 1159 2646Q1159 2676 1110 2695Q994 2720 897 2720H680Q496
2720 496 2609Q496 2552 504 2544Q436 2560 353 2580T215 2643T160 2761Q160 2849 235 2893T410 2937Q474 2937 647 2929T872 2920Q954 2920 1102 2928T1335 2937Q1501 2937 1582 2913T1663 2818Q1663 2730 1548 2654T1266 2502T1098 2408Q1108 2368 1319 2064Q1442
1904 1577 1696Q1896 1975 2048 2122Q2241 2315 2241 2425Q2241 2568 2073 2568Q2007 2568 1894 2536T1604 2438T1384 2359Q1312 2335 1294 2335Q1217 2335 1217 2392Q1217 2426 1319 2474Q1521 2560 1838 2700T2208 2863Q2413 2953 2552 2961Q2744 2961 2744 2785Q2744
2608 2425 2281Q2202 2040 1671 1569L2384 545Q2443 471 2515 416T2665 314T2855 201Q2896 158 2896 119Q2896 38 2783 7T2560 -25Q2525 -25 2430 -13T2257 0Q2197 0 2080 -12T1896 -25Q1773 -25 1651 13T1528 143Q1528 179 1577 209Q1580 212 1592 220T1618 242Q1786
309 1786 418Q1786 468 1577 799Q1330 1160 1286 1217Q1278 1208 1155 1089T942 872Q709 609 696 504Q696 465 738 435T897 336Q957 305 1019 275T1098 233Q1200 161 1200 119Q1200 42 1016 0Q925 -25 840 -25Q800 -25 713 -13T561 0Q510 0 425 -12T295 -25Q203
-25 149 41T94 201Q106 386 528 774Q643 879 783 1003T1026 1217T1192 1368Z" />
<glyph unicode="Y" glyph-name="Y" horiz-adv-x="2736" d="M1159 446V1200L479 2130Q389 2275 258 2327Q184 2356 184 2392Q184 2454 258 2466Q711 2632 831 2671Q930 2698 930 2720Q930 2744 754 2744H512Q410 2744 318 2715T225 2609Q225 2581 262 2535Q151
2535 62 2549T-93 2614T-160 2769Q-160 2937 119 2937H1176Q1454 2937 1454 2822Q1454 2766 1274 2687Q1207 2666 1125 2639T982 2567T922 2449Q998 2309 1095 2182T1347 1864T1577 1569Q1821 1767 2007 2007Q2191 2250 2191 2449Q2191 2574 2048 2601Q1936 2601
1824 2576T1558 2504T1297 2432T1081 2408Q1008 2408 1008 2466Q1008 2487 1024 2500T1064 2523T1110 2544Q1247 2577 1436 2644T1773 2765T2080 2868T2384 2937Q2489 2937 2580 2871T2671 2703Q2671 2517 2376 2142Q1995 1656 1688 1442V438Q1688 366 1929 258Q1956
240 1979 225T2026 190T2065 147T2081 102Q2081 51 1966 16Q1903 -25 1778 -25Q1739 -25 1639 -15T1425 0Q1319 0 1212 -12T1073 -25Q971 -25 872 16Q770 55 770 102Q770 146 810 184T906 254T1008 311Q1058 329 1108 367T1159 446Z" />
<glyph unicode="Z" glyph-name="Z" horiz-adv-x="2810" d="M295 578Q396 713 599 981T971 1469T1318 1920T1520 2183Q1589 2277 1678 2393T1794 2552Q1839 2623 1839 2662Q1839 2744 1688 2744H864Q784 2744 732 2702T680 2585Q680 2522 736 2461T903 2314T1073
2166T1135 2040Q1135 1997 1099 1954T982 1830T860 1685T815 1552Q614 1575 614 1737Q614 1809 651 1935T688 2089Q685 2172 602 2243T357 2414T114 2582T33 2728Q33 2844 193 2888Q296 2911 606 2929Q897 2937 1303 2937Q2028 2937 2298 2888Q2422 2871 2466 2838T2511
2744Q2511 2681 2464 2604T2359 2474L1098 823Q1039 746 1019 713T999 639Q999 545 1126 545H2150Q2335 545 2335 606Q2335 680 2256 742T2015 899T1770 1063T1688 1208Q1688 1280 1726 1329T1839 1439T1953 1546T1991 1663Q1991 1687 1987 1719T1982 1761Q2232
1655 2232 1479Q2232 1420 2212 1332T2191 1208Q2191 1150 2302 1034T2528 803T2726 558T2810 295Q2810 115 2668 45T2257 -25Q2107 -25 1903 -13T1561 0Q1405 0 1122 -12T713 -25Q479 -25 311 33Q94 94 94 225Q97 254 115 294T161 379T224 475T295 578Z" />
<glyph unicode="[" glyph-name="bracketleft" horiz-adv-x="1360" d="M393 -680V2839Q393 2915 416 2933T487 2961Q511 2961 585 2953T713 2945Q800 2945 836 2953T913 2961Q1051 2961 1088 2951T1126 2904Q1126 2857 1105 2836T1032 2793T950 2753Q864 2691 864
2560V-385Q864 -484 909 -533T1057 -623Q1126 -654 1126 -729Q1126 -757 1106 -770Q1073 -782 950 -782Q888 -782 827 -776T721 -770Q683 -770 605 -776T496 -782Q393 -782 393 -680Z" />
<glyph unicode="\" glyph-name="backslash" horiz-adv-x="2048" d="M1991 250Q2032 197 2032 127Q2032 60 1975 18T1847 -25Q1827 -25 1806 -18T1759 1T1729 16Q1726 22 1714 38T1696 66L82 2634Q74 2654 52 2687T19 2744T8 2802Q8 2858 64 2909T184 2961Q213
2961 260 2944T319 2904Q331 2898 377 2830L1991 250Z" />
<glyph unicode="]" glyph-name="bracketright" horiz-adv-x="1360" d="M967 -680Q967 -724 938 -753T864 -782Q828 -782 748 -776T631 -770Q586 -770 527 -776T410 -782Q279 -782 258 -770Q225 -759 225 -729Q225 -670 254 -650T349 -604T438 -545Q487 -484 487
-385V2560Q487 2708 401 2753Q370 2772 321 2793T250 2836T225 2904Q225 2940 267 2950T438 2961Q489 2961 544 2953T639 2945Q692 2945 768 2953T872 2961Q920 2952 943 2934T967 2839V-680Z" />
<glyph unicode="^" glyph-name="asciicircum" horiz-adv-x="2458" d="M303 1286L1024 2785H1434L2150 1286H1696L1225 2327L754 1286H303Z" />
<glyph unicode="_" glyph-name="underscore" horiz-adv-x="2048" d="M0 -311H2048V-512H0V-311Z" />
<glyph unicode="`" glyph-name="grave" horiz-adv-x="1135" d="M127 2904H360Q409 2904 449 2865T539 2744T594 2654Q652 2580 680 2552Q691 2539 728 2503T782 2444T799 2400Q799 2364 721 2351Q302 2424 111 2712Q57 2803 57 2839Q57 2904 127 2904Z" />
<glyph unicode="a" glyph-name="a" horiz-adv-x="2433" d="M143 594Q143 758 224 891T430 1122T694 1290T1024 1442Q1132 1481 1155 1492T1184 1528Q1184 1569 1118 1569Q1038 1569 890 1540T672 1511Q512 1511 381 1590T250 1815Q250 1977 404 2055T745 2134Q798
2134 925 2128T1118 2122Q1204 2122 1392 2128T1638 2134Q1958 2134 2081 1946Q2183 1788 2183 1335V319Q2359 200 2359 135Q2351 54 2130 -8Q2023 -25 1880 -25Q1815 -25 1646 0T1384 25Q1292 25 1110 0T831 -25Q650 -25 491 50T238 267T143 594ZM1630 631V1561Q1630
1754 1506 1854T1184 1954Q1019 1954 905 1921Q758 1895 745 1798Q745 1704 930 1704Q1005 1704 1160 1724T1360 1745Q1544 1745 1544 1618Q1544 1554 1490 1504T1343 1405T1159 1311Q977 1222 874 1121T770 856Q770 697 873 621T1143 545Q1245 545 1398 588T1630
631Z" />
<glyph unicode="b" glyph-name="b" horiz-adv-x="2433" d="M279 545V2494Q279 2556 245 2593T143 2674T41 2750T8 2839Q8 2888 57 2912T168 2937H672Q807 2937 807 2822V2032Q888 2032 1073 2095T1368 2159Q1653 2159 1866 1993T2194 1562T2310 1024Q2310 772
2218 531T1937 132T1479 -25Q1397 -25 1277 -13T1098 0Q1024 0 916 -12T745 -25Q466 -25 360 168Q279 302 279 545ZM1831 1159Q1831 1287 1802 1416T1712 1653T1554 1828T1319 1896Q1255 1896 1197 1878T1061 1824T925 1769T807 1745V913Q807 745 840 672Q890 569
1057 569H1450Q1831 569 1831 1159Z" />
<glyph unicode="c" glyph-name="c" horiz-adv-x="2130" d="M119 950Q119 1398 287 1679Q566 2147 1200 2159Q1455 2159 1688 2074T1921 1696Q1921 1551 1801 1452T1536 1352Q1428 1352 1327 1425Q1320 1431 1289 1459T1241 1499T1208 1511Q1159 1511 1151 1470Q1081
1499 1081 1585Q1081 1643 1127 1686T1241 1729Q1279 1729 1328 1721T1401 1712Q1428 1712 1449 1730T1470 1778Q1470 1831 1384 1880Q1267 1954 1151 1954Q955 1954 824 1853T631 1586T569 1233Q569 998 623 866T791 655Q979 545 1343 545Q1587 545 1720 631T1888
848Q1976 830 2055 725T2134 520Q2118 283 1970 129T1585 -25Q1482 -25 1369 -13T1192 0Q1145 0 1020 -12T831 -25Q607 -25 445 127T201 507T119 950Z" />
<glyph unicode="d" glyph-name="d" horiz-adv-x="2433" d="M119 1073Q119 1335 226 1593T535 2017T1008 2183Q1151 2183 1314 2121T1630 1999V2544Q1630 2611 1555 2649T1403 2725T1327 2830Q1327 2937 1450 2937H1991Q2069 2937 2109 2891T2150 2769V360Q2425
208 2425 143Q2425 0 2048 0Q1938 0 1755 12T1503 25Q1402 25 1253 0T1032 -25Q712 -25 507 130T210 535T119 1073ZM1630 1745Q1567 1757 1475 1814T1314 1900T1126 1929Q936 1929 821 1806T660 1514T614 1192Q614 1073 653 932T775 693T983 594H1417Q1496 594
1563 642T1630 770V1745Z" />
<glyph unicode="e" glyph-name="e" horiz-adv-x="2200" d="M119 950Q119 1244 218 1516T525 1961T1032 2134H1618Q1808 2134 1956 2074T2105 1847Q2105 1734 2052 1648T1917 1498T1738 1384T1528 1274Q1326 1177 1204 1108T979 927T848 664Q1069 545 1343 545Q1585
545 1722 637T1888 848Q1988 819 2061 719T2134 512Q2134 370 2061 247T1865 49T1602 -25Q1497 -25 1375 -13T1192 0Q1144 0 1026 -12T823 -25Q689 -25 558 54T328 270Q119 556 119 950ZM655 815Q732 1023 870 1147T1208 1368Q1426 1484 1501 1542T1577 1712Q1577
1921 1167 1921Q810 1921 690 1728T569 1249Q569 958 655 815Z" />
<glyph unicode="f" glyph-name="f" horiz-adv-x="1360" d="M401 344V1815Q401 1879 352 1916T214 1990T79 2058T33 2150Q33 2232 119 2232H311Q273 2267 228 2310T143 2406T80 2520T57 2654Q57 2827 191 2912T512 2998Q568 2998 625 2991T746 2972T891 2949T1024
2937Q1170 2937 1266 2998Q1352 2878 1352 2769Q1352 2667 1283 2584T1109 2455T905 2408Q854 2408 764 2441T623 2474Q520 2474 520 2425Q520 2382 559 2321T631 2232H799Q1026 2232 1143 2208Q1186 2201 1226 2171T1266 2097Q1266 2057 1192 2007Q1156 1981 1043
1919T922 1839V352Q922 314 949 294T1037 247T1128 196T1159 127Q1159 59 1053 22T864 -16Q834 -16 770 -8T664 0Q623 0 571 -8T463 -16Q380 -16 270 25T160 135Q160 173 233 217Q243 226 294 252T373 298T401 344Z" />
<glyph unicode="g" glyph-name="g" horiz-adv-x="2351" d="M135 958Q146 1639 537 1946Q816 2159 1282 2159Q1408 2159 1629 2147T1962 2134H2105Q2147 2134 2189 2119T2232 2064Q2232 1983 2073 1872V586Q2073 528 2082 480T2120 316T2162 130T2175 -16Q2175
-212 2073 -374T1796 -628T1417 -721Q1297 -721 1053 -725T688 -729Q448 -729 292 -662T135 -393Q135 -331 159 -273T184 -201Q184 -152 168 -127Q200 -111 250 -111Q389 -120 504 -184Q541 -210 614 -280T745 -385Q866 -471 1106 -471Q1647 -471 1647 -82Q1647
33 1638 82H1630Q1561 -25 1368 -25Q1318 -25 1244 -13T1106 0Q1045 0 964 -12T840 -25Q663 -25 529 65T308 302T178 622T135 958ZM1569 881V1552Q1569 1717 1456 1819T1176 1921Q892 1921 766 1704T639 1184Q639 827 749 686T1016 545H1360Q1453 545 1511 644T1569
881Z" />
<glyph unicode="h" glyph-name="h" horiz-adv-x="2351" d="M287 344V2687Q211 2704 130 2747T49 2847Q49 2937 250 2937H831Q1049 2937 1049 2847Q1049 2796 981 2752T815 2687V1880Q858 1887 899 1905T1009 1962T1106 2015Q1306 2134 1511 2134Q1825 2134 1962
1954Q2056 1828 2056 1602V336Q2056 308 2083 291T2171 246T2265 193T2298 127Q2298 81 2191 33Q2095 -16 1999 -16Q1965 -16 1903 -8T1798 0Q1763 0 1701 -8T1610 -16Q1520 -16 1407 22T1294 127Q1294 169 1360 217Q1370 224 1424 246T1507 290T1536 344V1528Q1536
1622 1457 1700T1282 1778Q1221 1778 1088 1735T815 1688V344Q815 313 842 295T927 250T1017 196T1049 127Q1049 60 942 22T754 -16Q725 -16 667 -8T553 0Q524 0 454 -8T360 -16Q272 -16 161 22T49 127Q49 164 83 190T184 250Q287 311 287 344Z" />
<glyph unicode="i" glyph-name="i" horiz-adv-x="1217" d="M344 344V1888Q102 1976 102 2048Q102 2134 303 2134H881Q1106 2134 1106 2056Q1106 1949 864 1888V344Q864 310 890 293T980 247T1075 194T1106 127Q1106 60 999 22T807 -16Q774 -16 714 -8T606 0Q569
0 516 -8T418 -16Q328 -16 215 22T102 127Q102 174 145 203T279 279Q344 311 344 344ZM303 2617Q303 2810 606 2810Q905 2810 905 2617Q905 2425 598 2425Q303 2425 303 2617Z" />
<glyph unicode="j" glyph-name="j" horiz-adv-x="1217" d="M344 57V1794Q344 1842 318 1870T241 1927T167 1980T143 2048Q143 2092 168 2113T279 2134H922Q998 2134 1031 2119T1065 2056Q1065 2008 1040 1981T964 1923T889 1861T864 1778V176Q864 121 907 26T966
-114T983 -258Q983 -515 768 -648T279 -782Q27 -782 -179 -672T-385 -328Q-385 -246 -339 -163T-213 -28T-41 25Q78 25 131 -27T218 -156T279 -233Q303 -233 319 -217Q352 -238 352 -287Q352 -353 300 -395T184 -438Q110 -438 74 -393Q65 -384 53 -368T31 -344T8
-336Q-3 -336 -14 -355T-25 -393Q-25 -469 49 -507T233 -545Q358 -545 447 -482T537 -295Q537 -223 446 -94Q431 -71 403 -38T363 14T344 57ZM303 2617Q303 2810 606 2810Q905 2810 905 2617Q905 2425 598 2425Q303 2425 303 2617Z" />
<glyph unicode="k" glyph-name="k" horiz-adv-x="2503" d="M840 1671V344Q856 333 898 307T968 259T1008 217Q1073 170 1073 127Q1073 60 966 22T774 -16Q749 -16 679 -8T553 0Q524 0 454 -8T360 -16Q272 -16 161 22T49 127Q49 178 79 206T170 264T259 317T287
385V2671Q242 2689 186 2712T90 2767T49 2847Q49 2937 250 2937H831Q1073 2937 1073 2847Q1073 2768 840 2671V1905Q908 1921 1021 1989T1248 2096T1561 2134Q1713 2134 1862 2090T2114 1945T2216 1688Q2216 1482 2006 1397T1552 1311Q1457 1311 1390 1323T1327
1335Q1315 1335 1303 1311Q1310 1311 1333 1301T1389 1274T1425 1257Q1480 1231 1628 1179T1867 1084T2023 975Q2110 877 2148 724T2208 344Q2290 302 2351 262Q2405 232 2458 186T2511 111Q2511 39 2408 12T2208 -16Q2169 -16 2101 -8T2007 0Q1819 -16 1778 -16Q1669
-16 1640 86T1610 336Q1610 815 1401 1008Q1367 1045 1323 1073T1208 1137T1106 1192Q1022 1246 986 1284T950 1384Q950 1536 1126 1536Q1186 1536 1284 1520T1462 1503Q1567 1503 1619 1544T1671 1688Q1671 1759 1601 1803T1401 1847Q1300 1847 1235 1824T1046
1744T840 1671Z" />
<glyph unicode="l" glyph-name="l" horiz-adv-x="1217" d="M344 352V2617Q344 2663 316 2690T237 2740T161 2786T135 2847Q135 2884 165 2910T233 2937H737Q864 2937 864 2839V344Q864 310 890 293T980 247T1075 194T1106 127Q1106 60 992 22T799 -16Q770 -16
706 -8T598 0Q557 0 504 -8T418 -16Q327 -16 215 19T102 127Q102 179 184 225Q217 240 254 256T318 296T344 352Z" />
<glyph unicode="m" glyph-name="m" horiz-adv-x="3559" d="M287 344V1786Q287 1831 260 1860T177 1923T98 1982T74 2048Q74 2134 233 2134H889Q1032 2134 1032 2073Q1032 2029 1006 2003T924 1944T842 1886T815 1823V1778Q952 1819 1111 1930T1362 2088T1630 2134Q1820
2134 1930 2034T2040 1778Q2178 1818 2341 1930T2596 2088T2863 2134Q3063 2134 3168 2035T3273 1769V344Q3273 308 3300 289T3388 243T3479 193T3510 127Q3510 83 3400 33Q3304 -16 3215 -16Q3190 -16 3128 -8T3006 0Q2972 0 2916 -8T2822 -16Q2735 -16 2623 22T2511
127Q2511 163 2544 193T2643 258T2712 295Q2753 322 2753 352V1552Q2753 1631 2698 1680T2552 1729Q2497 1729 2444 1713T2304 1663T2155 1611T2040 1593V344Q2045 310 2071 293T2159 248T2251 194T2281 127Q2281 60 2174 22T1982 -16Q1949 -16 1888 -8T1786 0Q1739
0 1685 -8T1593 -16Q1503 -16 1393 21T1282 127Q1282 164 1313 191T1402 249T1470 287Q1520 319 1520 344V1552Q1520 1627 1459 1678T1319 1729Q1247 1725 1161 1693T987 1627T815 1585V344Q815 307 844 285T932 238T1019 189T1049 127Q1049 80 930 25Q812 -16
754 -16Q717 -16 655 -8T553 0Q526 0 460 -8T360 -16Q272 -16 161 22T49 127Q49 162 102 209Q136 225 178 245T254 290T287 344Z" />
<glyph unicode="n" glyph-name="n" horiz-adv-x="2351" d="M2056 1622V344Q2065 308 2091 290T2179 245T2269 194T2298 127Q2298 60 2191 22T1999 -16Q1970 -16 1906 -8T1798 0Q1752 0 1697 -8T1610 -16Q1520 -16 1407 22T1294 127Q1294 167 1326 195T1418 252T1487
287Q1536 320 1536 344V1495Q1536 1592 1478 1660T1327 1729Q1208 1725 1131 1690T971 1610T815 1561V344Q815 307 844 285T932 238T1019 189T1049 127Q1049 80 930 25Q812 -16 754 -16Q717 -16 655 -8T553 0Q526 0 460 -8T360 -16Q272 -16 161 22T49 127Q49 162
102 209Q136 225 178 245T254 290T287 344V1786Q287 1831 260 1860T177 1923T98 1982T74 2048Q74 2134 233 2134H889Q1032 2134 1032 2073Q1032 2029 1006 2003T924 1944T842 1886T815 1823V1778Q947 1809 1071 1928T1261 2090T1511 2134Q1752 2134 1904 2000T2056
1622Z" />
<glyph unicode="o" glyph-name="o" horiz-adv-x="2281" d="M119 1106Q119 1514 287 1778Q549 2183 1143 2183Q1602 2183 1864 1921Q2159 1613 2159 1098Q2159 914 2110 716T1959 350T1703 79T1352 -25Q1308 -25 1248 -13T1143 0Q1091 0 1030 -12T950 -25Q680 -25
492 147T212 580T119 1106ZM594 1303Q594 1135 650 990T821 759T1106 672Q1679 672 1679 1352Q1679 1543 1618 1683T1441 1899T1167 1974Q904 1968 749 1799T594 1303Z" />
<glyph unicode="p" glyph-name="p" horiz-adv-x="2433" d="M311 -418V1769Q311 1821 257 1863T149 1946T94 2040Q94 2042 93 2045T86 2048Q100 2134 217 2134H864Q975 2134 975 2040Q975 2015 960 2001T904 1958T843 1904T823 1847V1798Q884 1854 976 1936T1189
2076T1462 2134Q1716 2134 1896 1979T2166 1584T2257 1098Q2257 823 2152 559T1837 123T1335 -49Q1197 -49 1076 8T881 171T807 418Q807 521 864 624T922 745Q922 790 889 823Q922 831 967 831Q1134 831 1184 688Q1217 597 1250 559T1368 520Q1520 520 1629 613T1792
857T1847 1176Q1847 1805 1327 1823Q1267 1823 1132 1770T913 1655Q831 1593 831 1552V705Q721 547 721 393Q721 252 831 94V-426Q831 -460 859 -479T950 -524T1042 -574T1073 -639Q1073 -686 930 -754Q838 -782 774 -782Q739 -782 681 -776T569 -770Q542 -770
479 -776T385 -782Q300 -782 187 -742T74 -631Q74 -594 135 -553Q144 -546 196 -516T279 -462T311 -418Z" />
<glyph unicode="q" glyph-name="q" horiz-adv-x="2433" d="M168 983Q168 1271 267 1537T562 1968T1024 2134Q1126 2134 1209 2094T1413 1969T1602 1855Q1602 1899 1576 1925T1487 1999Q1442 2013 1442 2073Q1442 2134 1577 2134H2208Q2351 2134 2351 2048Q2351
2003 2328 1984T2254 1946T2183 1905Q2130 1869 2130 1745V-250Q2184 -225 2265 -225Q2417 -225 2417 -385Q2417 -427 2384 -512Q2331 -487 2318 -487Q2277 -487 2244 -514T2171 -601T2122 -672Q2015 -807 1872 -807Q1744 -807 1683 -718T1622 -496V25Q1393 -102
1106 -102Q861 -102 681 -17T388 220T221 568T168 983ZM1602 696V1679Q1540 1683 1496 1701T1375 1762T1235 1825T1090 1847Q947 1847 839 1757T673 1501T614 1110Q614 860 764 666T1159 471Q1401 471 1602 696Z" />
<glyph unicode="r" glyph-name="r" horiz-adv-x="1745" d="M287 352V1778Q287 1829 261 1861T181 1928T104 1984T74 2048Q74 2106 112 2120T225 2134H881Q958 2134 991 2130Q1032 2104 1032 2056Q1032 2015 1006 1992T926 1940T844 1886T815 1823V1778Q881 1796
1020 1914T1231 2083T1401 2134Q1507 2134 1594 2075T1729 1920T1778 1720Q1778 1521 1688 1389T1417 1159Q1351 1137 1335 1126Q1324 1126 1311 1106Q1327 1090 1327 1081Q1303 1073 1286 1073Q1151 1073 1151 1200Q1151 1238 1163 1270T1199 1349T1236 1435T1249
1520Q1249 1595 1206 1629T1110 1663Q1077 1663 962 1620T815 1577V344Q815 310 840 293T928 247T1019 194T1049 127Q1049 64 942 24T754 -16Q714 -16 658 -8T553 0Q513 0 454 -8T369 -16Q273 -16 161 19T49 127Q49 183 119 217Q128 223 180 248T260 296T287 352Z"
/>
<glyph unicode="s" glyph-name="s" horiz-adv-x="2281" d="M217 1831Q217 2006 403 2070T807 2134H1638Q2015 2134 2015 1913Q2015 1831 1959 1780T1806 1729Q1632 1729 1610 1831Q1610 1872 1602 1896Q1577 1921 1520 1921H1098Q840 1921 840 1806Q840 1741 936
1694T1282 1556T1655 1393Q1907 1251 2034 1082T2167 655Q2167 463 2093 307T1886 63T1593 -25Q1523 -25 1364 -11T1098 8Q1022 8 857 -8T606 -25Q466 -25 353 31T176 191T102 438Q102 521 127 582T198 706T265 805T287 897Q287 942 258 999Q344 1024 438 1024Q552
1024 640 936T729 721Q729 594 836 557T1106 520Q1277 520 1410 577T1544 782Q1544 925 1343 1065Q1276 1108 1199 1146T938 1273T614 1434Q411 1539 314 1622T217 1831Z" />
<glyph unicode="t" glyph-name="t" horiz-adv-x="1286" d="M287 352V1806Q287 1850 201 1872Q82 1931 82 1991Q82 2073 279 2073V2175Q279 2292 209 2318Q169 2330 152 2342T135 2392Q135 2424 242 2478Q437 2573 538 2630T729 2777Q799 2822 807 2822Q872 2822
872 2769Q872 2731 844 2663T815 2552V2040Q887 2040 981 2064T1126 2089Q1211 2089 1261 2052T1311 1954Q1311 1885 1276 1801T1241 1663Q1241 1551 1311 1487Q1272 1393 1118 1393Q1016 1393 961 1466T905 1647Q905 1673 913 1716T922 1778Q922 1798 889 1798Q827
1798 815 1786V344Q815 312 842 291T928 243T1018 192T1049 127Q1049 77 938 33Q842 -16 754 -16Q728 -16 664 -8T553 0Q514 0 451 -8T360 -16Q275 -16 162 26T49 135Q49 167 84 194T182 254T262 303Q268 308 275 313T284 325T287 352Z" />
<glyph unicode="u" glyph-name="u" horiz-adv-x="2351" d="M287 553V1831Q287 1888 256 1911T144 1976T49 2056Q62 2134 184 2134H688Q750 2134 782 2091T815 1982V713Q815 471 1016 471Q1105 471 1274 532T1536 594V1831Q1536 1879 1480 1915T1368 1987T1311
2073Q1311 2134 1450 2134H2150Q2298 2134 2298 2064Q2298 2019 2266 1994T2174 1946T2085 1902T2056 1839V352Q2056 256 2191 193Q2273 139 2273 86Q2273 33 2241 17T2142 0H1450Q1376 0 1352 16Q1311 31 1311 66Q1311 108 1339 137T1421 198T1502 255T1536 319V360Q1400
324 1260 205T1049 43T799 0Q594 0 479 74Q388 137 338 242T287 553Z" />
<glyph unicode="v" glyph-name="v" horiz-adv-x="2281" d="M905 102Q829 256 752 432T574 863T409 1283T319 1511Q159 1922 -41 2015Q-66 2042 -66 2064Q-66 2134 74 2134H745Q889 2134 889 2064Q889 2041 876 2022T831 1976T787 1937T770 1905Q754 1872 754 1815Q754
1710 791 1594T884 1359T999 1118Q1097 895 1146 798T1282 614Q1343 520 1384 520Q1422 520 1452 553T1503 631T1544 721Q1653 965 1725 1229T1806 1729Q1806 1848 1738 1884T1544 1921Q1404 1921 1362 1914T1319 1872Q1319 1856 1339 1812T1360 1745Q1360 1638
1241 1638Q1182 1638 1126 1671Q1159 1693 1159 1729Q1159 1744 1073 1815Q961 1878 942 1946Q946 1953 964 2007T1016 2089Q1072 2134 1184 2134H1823Q2172 2134 2191 1921Q2191 1829 2122 1622T1966 1217Q1866 996 1771 786T1569 389T1335 49Q1277 -25 1249 -25Q1224
-25 1187 0T1135 25Q1117 25 1077 0T1008 -25Q957 -25 905 102Z" />
<glyph unicode="w" glyph-name="w" horiz-adv-x="2879" d="M815 127L287 1704Q231 1883 66 1982Q16 2012 16 2056Q16 2134 152 2134H791Q895 2134 935 2117T975 2056Q975 2019 905 1966Q853 1925 830 1894T807 1806Q807 1786 823 1720L1192 664L1618 1753Q1632
1806 1688 1806Q1745 1806 1761 1753L2134 623H2142L2425 1417Q2478 1595 2478 1761Q2478 1954 2191 1954H1487Q1368 1954 1368 1905Q1368 1893 1388 1856T1409 1778Q1409 1675 1350 1626T1208 1577Q1151 1577 1107 1616T1057 1720Q1073 1720 1081 1712Q1126 1722
1126 1778Q1126 1815 1092 1884T1057 2007Q1057 2078 1117 2106T1303 2134H2671Q2863 2134 2863 2007Q2863 1980 2853 1936T2829 1849T2810 1786L2183 86Q2158 24 2142 8Q2131 -25 2089 -25Q2074 -25 2048 0T1999 25Q1983 25 1953 0T1896 -25Q1833 -25 1806 74L1552
848L1241 82Q1218 37 1208 8Q1175 -25 1135 -25Q1123 -25 1089 0T1032 25Q1015 25 986 0T938 -25Q893 -25 872 3T815 127Z" />
<glyph unicode="x" glyph-name="x" horiz-adv-x="2351" d="M905 1032L401 1729Q357 1787 252 1861T135 1946Q74 1987 74 2040Q74 2094 142 2114T279 2134H991H1081Q1282 2134 1282 2056Q1282 2038 1257 1991Q1380 2036 1585 2085T1888 2134Q1980 2134 2032 2118T2089
2040Q2089 2008 1946 1872Q1660 1586 1352 1225L1778 672Q1827 623 1892 541T1997 415T2097 319Q2123 294 2153 271T2212 230T2298 176Q2359 122 2359 86Q2359 30 2271 3T2114 -25Q2065 -25 1971 -13T1815 0Q1742 0 1655 -12T1520 -25Q1274 -25 1274 57Q1274 100
1318 132T1406 196T1450 270Q1450 298 1384 385L1040 856Q947 746 868 652T743 484T696 360Q696 317 722 290T815 217Q930 150 930 94Q930 37 836 6T672 -25Q622 -25 546 -13T430 0Q383 0 299 -12T184 -25Q63 -25 49 74Q49 166 258 377L905 1032ZM1241 1393Q1358
1550 1434 1630Q1561 1793 1561 1839Q1561 1896 1511 1896Q1461 1896 1413 1882T1290 1837T1169 1792T1073 1778Q950 1778 950 1847Q950 1888 1016 1954H881Q840 1954 840 1921Q840 1911 889 1839L1241 1393Z" />
<glyph unicode="y" glyph-name="y" horiz-adv-x="2351" d="M950 344L176 1778Q147 1823 123 1849T58 1911T-8 1974Q-66 2032 -66 2064Q-49 2134 111 2134H1126Q1257 2134 1257 2048Q1257 2001 1192 1974V1966Q1287 1982 1489 2033T1815 2108T2064 2134Q2281 2134
2281 2007Q2272 1837 1905 1151Q1793 946 1658 714T1503 446V-270Q1503 -476 1428 -629T1167 -782Q1073 -782 1015 -735T872 -586Q853 -560 822 -514T766 -443T713 -418Q664 -418 586 -455Q587 -451 607 -337T666 -175T791 -127Q859 -127 950 -176V344ZM872 1954H647L1282
737Q1303 696 1319 696Q1348 696 1401 770Q1778 1276 1778 1712Q1778 1817 1743 1856T1630 1896Q1533 1896 1409 1861T1161 1789T938 1753Q815 1753 815 1855Q815 1884 834 1912T872 1946V1954Z" />
<glyph unicode="z" glyph-name="z" horiz-adv-x="2351" d="M119 233L770 999L1417 1769Q1470 1828 1470 1855Q1470 1896 1401 1896H840Q696 1896 696 1831Q696 1813 723 1776T766 1710T782 1638Q782 1569 725 1520T598 1470Q546 1470 498 1504T426 1593Q454 1621
471 1671Q471 1717 373 1793T242 1903T209 2015Q209 2062 287 2097Q371 2134 561 2134H1929Q2200 2134 2200 2023Q2200 1974 2184 1931T2145 1858T2114 1815L1049 594Q1152 545 1417 545Q1495 545 1584 564T1736 621T1798 713Q1798 731 1785 764T1769 807Q1737
855 1737 897Q1737 946 1786 981T1888 1016Q1961 1016 2009 997T2073 905Q2015 891 2015 807Q2015 749 2046 701T2146 566T2253 406T2290 242Q2276 -25 1855 -25Q1772 -25 1503 0T1065 25Q941 25 707 0T352 -25Q205 -25 136 11T66 94Q66 166 119 233Z" />
<glyph unicode="{" glyph-name="braceleft" horiz-adv-x="1360" d="M127 1090Q328 1147 383 1269T438 1585V2376Q438 2674 586 2810Q685 2909 844 2935T1225 2961V2888Q922 2830 922 2376V1671Q922 1515 902 1408T809 1218T586 1098V1081Q782 1032 852 883T922
504V-209Q922 -652 1225 -713V-782Q1032 -782 882 -761T631 -672Q529 -605 488 -492T446 -193L438 594Q438 786 369 909T127 1090Z" />
<glyph unicode="|" glyph-name="bar" horiz-adv-x="913" d="M250 -25V2961H655V-25H250Z" />
<glyph unicode="}" glyph-name="braceright" horiz-adv-x="1360" d="M1225 1090Q1052 1031 983 910T913 594V-168Q913 -357 872 -481T729 -672Q631 -739 480 -760T135 -782V-713Q430 -653 430 -209V504Q430 742 498 887T770 1081V1098Q620 1134 545 1217T450 1407T430
1671V2376Q430 2828 135 2888V2961Q348 2961 508 2933T774 2810Q913 2671 913 2376V1585Q913 1396 971 1272T1225 1090Z" />
<glyph unicode="~" glyph-name="asciitilde" horiz-adv-x="2458" d="M279 1032Q457 1384 770 1384Q881 1384 982 1352T1223 1259T1463 1166T1663 1135Q1762 1135 1843 1191T2023 1384L2175 1032Q1987 688 1679 688Q1568 688 1462 719T1213 810T973 900T782 930Q722
930 668 906T573 846T496 769T426 688L279 1032Z" />
</font>
</defs>
</svg>
